<!DOCTYPE svg PUBLIC "-//W3C//DTD SVG 1.1//EN" "http://www.w3.org/Graphics/SVG/1.1/DTD/svg11.dtd">
<!-- Uploaded to: SVG Repo, www.svgrepo.com, Transformed by: SVG Repo Mixer Tools -->
<svg fill="#ffffff" height="800px" width="800px" version="1.1" id="Layer_1" xmlns="http://www.w3.org/2000/svg" xmlns:xlink="http://www.w3.org/1999/xlink" viewBox="0 0 512 512" xml:space="preserve">
<g id="SVGRepo_bgCarrier" stroke-width="0"/>
<g id="SVGRepo_tracerCarrier" stroke-linecap="round" stroke-linejoin="round"/>
<g id="SVGRepo_iconCarrier"> <g transform="translate(1 1)"> <g> <g> <path d="M485.4,272.067h-59.733V24.6c0-14.507-11.093-25.6-25.6-25.6H24.6C10.093-1-1,10.093-1,24.6v460.8 c0,14.507,11.093,25.6,25.6,25.6h435.2c28.16,0,51.2-23.04,51.2-51.2V297.667C511,283.16,499.907,272.067,485.4,272.067z M24.6,493.933c-4.267,0-8.533-3.413-8.533-8.533V24.6c0-4.267,4.267-8.533,8.533-8.533h375.467c4.267,0,8.533,3.413,8.533,8.533 v256v179.2c0,12.8,4.267,24.747,12.8,34.133H24.6z M493.933,459.8c0,18.773-15.36,34.133-34.133,34.133 c-18.773,0-34.133-15.36-34.133-34.133V289.133H485.4c4.267,0,8.533,3.413,8.533,8.533V459.8z"/> <path d="M50.2,212.333H255c5.12,0,8.533-3.413,8.533-8.533V50.2c0-5.12-3.413-8.533-8.533-8.533H50.2 c-5.12,0-8.533,3.413-8.533,8.533v153.6C41.667,208.92,45.08,212.333,50.2,212.333z M58.733,58.733h187.733v136.533H58.733 V58.733z"/> <path d="M323.267,67.267h42.667c5.12,0,8.533-3.413,8.533-8.533s-3.413-8.533-8.533-8.533h-42.667 c-5.12,0-8.533,3.413-8.533,8.533S318.147,67.267,323.267,67.267z"/> <path d="M374.467,92.867h-76.8c-5.12,0-8.533,3.413-8.533,8.533s3.413,8.533,8.533,8.533h76.8c5.12,0,8.533-3.413,8.533-8.533 S379.587,92.867,374.467,92.867z"/> <path d="M348.867,152.6c5.12,0,8.533-3.413,8.533-8.533c0-5.12-3.413-8.533-8.533-8.533h-34.133c-5.12,0-8.533,3.413-8.533,8.533 c0,5.12,3.413,8.533,8.533,8.533H348.867z"/> <path d="M374.467,237.933H50.2c-5.12,0-8.533,3.413-8.533,8.533V280.6c0,5.12,3.413,8.533,8.533,8.533h324.267 c5.12,0,8.533-3.413,8.533-8.533v-34.133C383,241.347,379.587,237.933,374.467,237.933z M365.933,272.067h-307.2V255h307.2 V272.067z"/> <path d="M220.867,314.733H50.2c-5.12,0-8.533,3.413-8.533,8.533S45.08,331.8,50.2,331.8h170.667c5.12,0,8.533-3.413,8.533-8.533 S225.987,314.733,220.867,314.733z"/> <path d="M374.467,314.733h-102.4c-5.12,0-8.533,3.413-8.533,8.533s3.413,8.533,8.533,8.533h102.4c5.12,0,8.533-3.413,8.533-8.533 S379.587,314.733,374.467,314.733z"/> <path d="M323.267,357.4H255c-5.12,0-8.533,3.413-8.533,8.533s3.413,8.533,8.533,8.533h68.267c5.12,0,8.533-3.413,8.533-8.533 S328.387,357.4,323.267,357.4z"/> <path d="M263.533,408.6c0,5.12,3.413,8.533,8.533,8.533h93.867c5.12,0,8.533-3.413,8.533-8.533s-3.413-8.533-8.533-8.533h-93.867 C266.947,400.067,263.533,403.48,263.533,408.6z"/> <path d="M374.467,442.733H255c-5.12,0-8.533,3.413-8.533,8.533c0,5.12,3.413,8.533,8.533,8.533h119.467 c5.12,0,8.533-3.413,8.533-8.533C383,446.147,379.587,442.733,374.467,442.733z"/> <path d="M178.2,442.733H58.733c-5.12,0-8.533,3.413-8.533,8.533c0,5.12,3.413,8.533,8.533,8.533H178.2 c5.12,0,8.533-3.413,8.533-8.533C186.733,446.147,183.32,442.733,178.2,442.733z"/> <path d="M178.2,400.067H84.333c-5.12,0-8.533,3.413-8.533,8.533s3.413,8.533,8.533,8.533H178.2c5.12,0,8.533-3.413,8.533-8.533 S183.32,400.067,178.2,400.067z"/> <path d="M195.267,357.4H75.8c-5.12,0-8.533,3.413-8.533,8.533s3.413,8.533,8.533,8.533h119.467c5.12,0,8.533-3.413,8.533-8.533 S200.387,357.4,195.267,357.4z"/> <path d="M289.133,195.267c0,5.12,3.413,8.533,8.533,8.533H357.4c5.12,0,8.533-3.413,8.533-8.533s-3.413-8.533-8.533-8.533 h-59.733C292.547,186.733,289.133,190.147,289.133,195.267z"/> </g> </g> </g> </g>
</svg>