<svg xmlns="http://www.w3.org/2000/svg" shape-rendering="geometricPrecision" text-rendering="geometricPrecision" image-rendering="optimizeQuality" fill-rule="evenodd" clip-rule="evenodd" viewBox="0 0 412 511.67"><path fill="#fff" d="M264.39 11.27c48.26-25.14 108-6.81 133.4 40.94 25.42 47.75 6.9 106.86-41.37 132l-39.68 20.85c34.19 1.24 66.78 20.05 83.86 52.15 25.42 47.75 6.89 106.86-41.37 132L147.61 500.39c-48.27 25.14-107.99 6.82-133.41-40.93-25.41-47.76-6.88-106.86 41.38-132l39.69-20.86c-34.19-1.23-66.79-20.03-83.88-52.14-25.41-47.76-6.88-106.86 41.38-132L264.39 11.27zM150.14 177.08l128.1 79.08-128.1 78.69V177.08z"/></svg>