<?xml version="1.0" standalone="no"?>
<!DOCTYPE svg PUBLIC "-//W3C//DTD SVG 20010904//EN"
 "http://www.w3.org/TR/2001/REC-SVG-20010904/DTD/svg10.dtd">
<svg version="1.0" xmlns="http://www.w3.org/2000/svg"
 width="24.000000pt" height="24.000000pt" viewBox="0 0 24.000000 24.000000"
 preserveAspectRatio="xMidYMid meet">
<metadata>
Created by potrace 1.10, written by Peter Selinger 2001-2011
</metadata>
<g transform="translate(0.000000,24.000000) scale(0.100000,-0.100000)"
fill="#ffffff" stroke="none">
<path d="M20 120 l0 -70 80 0 80 0 0 30 c0 28 2 30 20 20 18 -10 20 -8 20 26
0 31 -3 36 -20 31 -15 -4 -20 0 -20 14 0 17 -8 19 -80 19 l-80 0 0 -70z m150
39 c0 -16 4 -19 20 -14 16 5 20 2 20 -15 0 -17 -4 -20 -20 -15 -17 5 -20 2
-20 -24 l0 -31 -70 0 -70 0 0 60 0 60 70 0 c64 0 70 -2 70 -21z"/>
<path d="M90 145 c0 -8 -7 -15 -15 -15 -8 0 -15 -4 -15 -10 0 -5 7 -10 15 -10
8 0 15 -7 15 -15 0 -8 5 -15 10 -15 6 0 10 7 10 15 0 8 7 15 15 15 8 0 15 5
15 10 0 6 -7 10 -15 10 -8 0 -15 7 -15 15 0 8 -4 15 -10 15 -5 0 -10 -7 -10
-15z"/>
</g>
</svg>
