<?xml version="1.0" standalone="no"?>
<!DOCTYPE svg PUBLIC "-//W3C//DTD SVG 20010904//EN"
 "http://www.w3.org/TR/2001/REC-SVG-20010904/DTD/svg10.dtd">
<svg version="1.0" xmlns="http://www.w3.org/2000/svg"
 width="106.000000pt" height="113.000000pt" viewBox="0 0 106.000000 113.000000"
 preserveAspectRatio="xMidYMid meet">
<metadata>
Created by potrace 1.10, written by Peter Selinger 2001-2011
</metadata>
<g transform="translate(0.000000,113.000000) scale(0.100000,-0.100000)"
fill="#ffffff" stroke="none">
<path d="M730 1053 c-37 -14 -458 -239 -489 -261 -108 -80 -86 -256 39 -314
27 -13 50 -25 50 -28 0 -3 -23 -17 -50 -32 -58 -32 -99 -89 -107 -148 -17
-127 114 -239 235 -201 21 6 140 66 267 134 201 107 233 128 260 166 26 37 30
52 30 105 0 83 -32 134 -104 167 -28 13 -50 26 -51 29 0 3 21 16 47 30 121 64
148 208 55 303 -47 48 -127 70 -182 50z m118 -63 c49 -30 74 -76 69 -129 -6
-58 -30 -87 -107 -130 -51 -29 -66 -43 -68 -63 -3 -24 4 -30 65 -60 85 -41
117 -83 110 -145 -8 -74 -28 -90 -287 -228 -230 -121 -244 -127 -288 -122 -37
4 -53 12 -79 41 -38 41 -48 72 -39 121 9 46 38 77 111 118 52 28 60 37 60 62
0 25 -6 31 -50 49 -67 28 -89 45 -109 83 -44 87 -10 146 129 221 397 213 418
221 483 182z"/>
<path d="M470 560 l0 -131 120 62 c66 35 120 66 120 69 0 3 -54 34 -120 69
l-120 62 0 -131z"/>
</g>
</svg>
